<svg width="148" height="29" viewBox="0 0 148 29" fill="none" xmlns="http://www.w3.org/2000/svg">
<path d="M134.76 6.24316H144.444L141.421 12.5842H131.737L134.76 6.24316ZM9.85607 6.24316H19.5397L16.5166 12.5842H6.83301L9.85607 6.24316Z" fill="#1A1A1A"/>
<path d="M136.382 23.3243C138.643 23.3243 140.413 22.1937 140.732 19.5885H147.466C146.999 25.3151 142.6 28.8297 136.406 28.8297C129.426 28.8297 124.904 24.2582 124.904 17.229V0H131.761V17.229C131.737 21.4564 133.555 23.3243 136.382 23.3243ZM6.83261 17.1798C6.83261 21.4318 8.65137 23.2997 11.4778 23.2997C13.739 23.2997 15.5086 22.1937 15.8281 19.5639H22.5624C22.0954 25.2905 17.696 28.8051 11.5024 28.8051C4.52231 28.8051 0 24.2337 0 17.2044V12.6084H6.85719V17.1798H6.83261ZM78.4276 17.2782C78.4276 10.2735 82.9745 5.67746 89.9791 5.67746C96.9592 5.67746 101.531 10.4455 101.531 17.9418V19.269H84.9407C85.4077 22.4395 87.423 23.9633 90.0528 23.9633C92.314 23.9633 93.7887 23.0539 94.5751 21.4564H100.99C99.7611 26.1507 95.4354 28.9034 90.0528 28.9034C83.1219 28.8788 78.4276 24.332 78.4276 17.2782ZM89.8808 10.593C87.3984 10.593 85.506 11.8711 84.9652 14.9678H94.8701C94.4031 12.2397 92.6335 10.593 89.8808 10.593ZM56.8483 6.63599C54.4151 7.49621 53.4074 9.78194 52.4489 11.9694C52.3014 12.2889 52.1785 12.6084 52.0311 12.9033H51.9573V6.21817H45.7638V28.1907H52.3997V17.6714C52.3997 15.189 54.1202 13.1491 56.5288 12.5592C58.028 12.1906 59.601 12.3134 61.1494 12.4363C61.1494 11.4041 61.1494 10.3718 61.1494 9.33954C61.1494 8.30728 61.1494 7.27502 61.1494 6.24275C59.6993 6.11986 58.2247 6.16901 56.8483 6.63599ZM69.3092 11.9694C70.2678 9.78194 71.2754 7.49621 73.7086 6.63599C75.0604 6.14443 76.5351 6.11986 77.9852 6.24275C77.9852 7.27502 77.9852 8.30728 77.9852 9.33954C77.9852 10.3718 77.9852 11.4041 77.9852 12.4363C76.4368 12.3134 74.8638 12.1906 73.3646 12.5592C70.9559 13.1491 69.2355 15.1645 69.2355 17.6714V28.1907H62.5995V6.24275H68.7931V12.9279H68.8914C69.0143 12.6084 69.1618 12.2889 69.3092 11.9694ZM37.3827 18.2121C37.3827 20.8173 36.67 22.8081 33.5978 22.8081C30.5993 22.8081 30.1323 20.719 30.1323 18.2613V6.26732H23.4963V20.0063C23.4963 22.0462 23.7667 24.2091 24.971 25.9295C25.2905 26.3719 25.6346 26.7652 26.0524 27.1093C28.5839 29.2721 32.7375 29.6408 35.2936 27.3304C36.6946 26.0524 37.1861 24.3811 37.7023 22.6607L37.7514 22.4641H37.8497V28.2398H44.0187V6.2919H37.3827V18.2121ZM111.583 7.1767C114.114 4.89097 118.268 5.23506 120.824 7.3979C121.217 7.74199 121.586 8.13524 121.906 8.57764C123.11 10.2735 123.38 12.4609 123.38 14.5009V28.2398H116.744V16.2459C116.744 13.7881 116.277 11.699 113.279 11.699C110.207 11.699 109.494 13.6898 109.494 16.295V28.2398H102.858V6.2919H109.027V12.0431H109.15C109.174 11.9694 109.174 11.9202 109.199 11.8465C109.69 10.1015 110.182 8.45475 111.583 7.1767Z" fill="#1A1A1A"/>
</svg>
