<svg width="421" height="116" viewBox="0 0 421 116" fill="none" xmlns="http://www.w3.org/2000/svg">
<path d="M249.708 18.3357C251.458 18.3357 252.878 16.9357 252.878 15.2057C252.878 13.4757 251.458 11.9857 249.708 11.9857C247.958 11.9857 246.538 13.4257 246.538 15.2057C246.538 16.9857 247.958 18.3357 249.708 18.3357Z" fill="#2D2D3C"/>
<path d="M241.198 18.3357C242.948 18.3357 244.368 16.9357 244.368 15.2057C244.368 13.4757 242.948 11.9857 241.198 11.9857C239.448 11.9857 238.028 13.4257 238.028 15.2057C238.028 16.9857 239.448 18.3357 241.198 18.3357Z" fill="#2D2D3C"/>
<path d="M397.338 18.3357C399.088 18.3357 400.508 16.9357 400.508 15.2057C400.508 13.4757 399.088 11.9857 397.338 11.9857C395.588 11.9857 394.168 13.4257 394.168 15.2057C394.168 16.9857 395.588 18.3357 397.338 18.3357Z" fill="#2D2D3C"/>
<path d="M357.238 26.9057H352.428L352.398 26.8657C351.808 26.1457 351.448 25.1657 351.448 24.2957C351.448 22.2657 353.148 21.9557 354.158 21.9557C354.978 21.9557 355.758 22.1557 356.148 22.2657H356.178L356.658 19.5257H356.628C355.918 19.3157 355.058 19.0957 353.988 19.0957C350.798 19.0957 348.478 21.1957 348.478 24.0757C348.478 24.9757 348.718 25.9157 349.158 26.7457L349.238 26.8957H346.688V29.6957H357.238V26.8957V26.9057Z" fill="#2D2D3C"/>
<path d="M411.008 53.2157C411.008 51.4457 409.588 49.9957 407.838 49.9957C406.088 49.9957 404.668 51.4357 404.668 53.2157C404.668 54.9957 406.088 56.3457 407.838 56.3457C409.588 56.3457 411.008 54.9457 411.008 53.2157Z" fill="#2D2D3C"/>
<path d="M151.498 23.0556L151.468 23.0356L148.588 26.8256L148.618 26.8456C156.528 31.1756 160.438 36.1056 160.458 42.0056H140.708V46.3956H165.158V42.8356C165.158 39.9656 164.898 36.9156 162.848 33.1556C160.728 29.2456 156.978 25.9756 151.508 23.0556" fill="#2D2D3C"/>
<path d="M248.338 23.6258H243.868V35.2358C243.868 40.2258 242.358 41.9958 238.108 41.9958H223.158V41.8958C224.448 32.7858 221.888 29.1358 219.408 26.7658C216.638 24.1158 213.288 23.0358 207.848 23.0358C206.178 23.0358 201.848 23.4858 198.928 24.5558H198.898L199.968 28.9458H199.998C202.868 28.1058 205.188 27.6858 207.108 27.6558C211.118 27.5858 213.708 27.9658 215.878 30.1158C218.528 32.7458 218.558 37.7958 217.718 41.9358L217.698 42.0058H180.308C175.948 42.0058 173.918 40.3358 173.918 36.7258V11.3958H169.448V36.9958C169.448 43.3858 172.778 46.4058 180.128 46.4058H238.578C245.078 46.4058 248.358 42.8658 248.358 35.9958V23.6358L248.338 23.6258Z" fill="#2D2D3C"/>
<path d="M288.028 35.3458C288.028 40.0758 286.208 42.0058 281.738 42.0058H278.428V17.2058H273.958V42.0058H254.318V46.4058H282.238C288.758 46.4058 292.488 42.8358 292.488 36.6258V11.3958H288.018V35.3458H288.028Z" fill="#2D2D3C"/>
<path d="M306.568 11.3857H302.098V46.3957H306.568V11.3857Z" fill="#2D2D3C"/>
<path d="M231.618 81.4058L222.278 91.5758V69.1658H217.768V104.176H222.278V94.0758L231.588 104.176H237.298L226.938 92.8058L237.328 81.4058H231.618Z" fill="#2D2D3C"/>
<path d="M157.878 86.5258C160.488 85.8258 163.358 83.4658 163.358 78.9158C163.358 77.2858 162.848 69.1758 152.668 69.1758H140.688V104.186H152.918C160.808 104.186 163.608 98.8558 163.608 94.2958C163.608 89.3958 160.158 87.1658 157.878 86.5358M145.398 73.4258H152.668C157.078 73.4258 158.648 76.3758 158.648 78.9058C158.648 79.4658 158.478 84.3358 152.768 84.3358H145.398V73.4158V73.4258ZM152.928 99.9158H145.408V88.6458H153.028C157.678 88.6458 158.908 92.3658 158.908 94.3258C158.908 96.3958 157.648 99.9058 152.928 99.9058" fill="#2D2D3C"/>
<path d="M185.128 85.0357C183.548 82.3857 180.578 80.8057 177.108 80.8057C173.948 80.8057 171.028 82.0757 168.878 84.3757C166.778 86.6257 165.618 89.6157 165.618 92.7857C165.618 99.4757 170.638 104.716 177.048 104.716C180.548 104.716 183.538 103.146 185.118 100.486V104.166H189.578V81.3957H185.118V85.0257L185.128 85.0357ZM177.608 100.666C173.248 100.666 170.088 97.3557 170.088 92.7957C170.088 90.6657 170.818 88.6857 172.138 87.2257C173.518 85.7057 175.458 84.8757 177.618 84.8757C179.778 84.8757 181.718 85.7157 183.098 87.2257C184.418 88.6857 185.148 90.6557 185.148 92.7957C185.148 97.3557 181.988 100.666 177.628 100.666" fill="#2D2D3C"/>
<path d="M205.868 80.8057C202.258 80.8057 199.458 82.3257 197.948 85.1057V81.4057H193.438V104.176H197.948V92.4457C197.948 86.8157 201.388 84.8257 204.328 84.8257C206.878 84.8257 209.908 86.0857 209.908 92.0957V104.176H214.418V90.7557C214.418 87.5857 213.888 85.5157 212.658 83.8357C211.178 81.8557 208.828 80.8157 205.868 80.8157" fill="#2D2D3C"/>
<path d="M265.578 85.0357C263.998 82.3857 261.028 80.8057 257.558 80.8057C254.398 80.8057 251.478 82.0757 249.328 84.3757C247.228 86.6257 246.068 89.6157 246.068 92.7857C246.068 99.4757 251.088 104.716 257.498 104.716C260.998 104.716 263.988 103.146 265.568 100.486V104.166H270.028V81.3957H265.568V85.0257L265.578 85.0357ZM258.048 100.666C253.688 100.666 250.528 97.3557 250.528 92.7957C250.528 90.6657 251.258 88.6857 252.578 87.2257C253.958 85.7057 255.898 84.8757 258.058 84.8757C260.218 84.8757 262.158 85.7157 263.538 87.2257C264.858 88.6857 265.588 90.6557 265.588 92.7957C265.588 97.3557 262.428 100.666 258.068 100.666" fill="#2D2D3C"/>
<path d="M278.348 69.1658H273.838V104.176H278.348V69.1658Z" fill="#2D2D3C"/>
<path d="M293.748 104.176H313.478V99.9158H298.448V88.8958H313.478V84.6358H298.448V73.4258H313.478V69.1658H293.748V104.176Z" fill="#2D2D3C"/>
<path d="M328.528 100.366C326.538 100.366 324.888 100.006 324.888 95.5257V85.2157H330.758V81.4056H324.888V73.7957H320.378V81.4056H316.198V85.2157H320.378V96.4756C320.378 99.7456 321.238 102.036 322.918 103.286C324.348 104.346 326.138 104.476 327.528 104.476C329.068 104.476 330.658 104.316 331.478 104.176H331.548V100.156L331.448 100.176C330.778 100.276 329.378 100.376 328.528 100.376" fill="#2D2D3C"/>
<path d="M337.638 69.7656C335.888 69.7656 334.468 71.2056 334.468 72.9856C334.468 74.7656 335.888 76.1156 337.638 76.1156C339.388 76.1156 340.808 74.7156 340.808 72.9856C340.808 71.2556 339.388 69.7656 337.638 69.7656Z" fill="#2D2D3C"/>
<path d="M339.868 81.4058H335.408V104.176H339.868V81.4058Z" fill="#2D2D3C"/>
<path d="M357.888 80.8058C354.278 80.8058 351.478 82.3258 349.968 85.1058V69.1658H345.458V104.176H349.968V92.4458C349.968 86.8158 353.408 84.8258 356.348 84.8258C358.898 84.8258 361.928 86.0858 361.928 92.0958V104.176H366.438V90.7558C366.438 87.5858 365.908 85.5158 364.678 83.8358C363.198 81.8558 360.848 80.8158 357.888 80.8158" fill="#2D2D3C"/>
<path d="M388.538 85.0357C386.958 82.3857 383.988 80.8057 380.518 80.8057C377.358 80.8057 374.438 82.0757 372.288 84.3757C370.188 86.6257 369.028 89.6157 369.028 92.7857C369.028 99.4757 374.048 104.716 380.458 104.716C383.958 104.716 386.948 103.146 388.528 100.486V104.166H392.988V81.3957H388.528V85.0257L388.538 85.0357ZM381.018 100.666C376.658 100.666 373.498 97.3557 373.498 92.7957C373.498 90.6657 374.228 88.6857 375.548 87.2257C376.928 85.7057 378.868 84.8757 381.028 84.8757C383.188 84.8757 385.128 85.7157 386.498 87.2257C387.818 88.6857 388.548 90.6557 388.548 92.7957C388.548 97.3557 385.388 100.666 381.028 100.666" fill="#2D2D3C"/>
<path d="M415.608 85.0358C414.028 82.3858 411.058 80.8058 407.588 80.8058C404.428 80.8058 401.508 82.0758 399.358 84.3758C397.258 86.6258 396.098 89.6158 396.098 92.7858C396.098 99.4758 401.118 104.716 407.528 104.716C411.028 104.716 414.018 103.146 415.598 100.486V104.166H420.058V69.1558H415.598V85.0258L415.608 85.0358ZM408.088 100.666C403.728 100.666 400.568 97.3558 400.568 92.7958C400.568 90.6658 401.298 88.6858 402.618 87.2258C403.998 85.7058 405.938 84.8758 408.098 84.8758C410.258 84.8758 412.198 85.7158 413.578 87.2258C414.898 88.6858 415.628 90.6558 415.628 92.7958C415.628 97.3558 412.468 100.666 408.108 100.666" fill="#2D2D3C"/>
<path d="M415.598 23.6257V34.7857C415.598 39.8657 413.028 41.9957 407.578 41.9957C402.058 41.9957 399.558 39.4157 399.558 34.7857V23.6257H395.088V34.7857C395.088 39.8657 392.518 41.9957 387.068 41.9957C381.578 41.9957 379.088 39.4457 379.048 34.8657V11.3857H374.578V35.2357C374.578 40.2257 373.708 41.9957 368.818 41.9957H334.948C330.008 41.9957 326.818 38.9857 326.818 34.3257C326.818 32.6057 327.218 30.1557 327.978 27.2357V27.2057L323.768 26.0857V26.1157C323.058 28.0357 322.068 32.1057 322.068 35.1757C322.068 41.7857 327.088 46.4057 334.268 46.4057H368.818C373.168 46.4057 376.038 45.2657 377.688 43.1157C379.218 45.0057 382.268 46.4057 387.068 46.4057C392.308 46.4057 395.758 45.0257 397.678 42.4257L397.958 42.8057C399.398 44.8557 402.508 46.4057 407.578 46.4057C416.288 46.4057 420.058 42.6157 420.058 35.7057V23.6357H415.588L415.598 23.6257Z" fill="#2D2D3C"/>
<path d="M53.588 38.1157C56.678 39.4057 59.068 39.4057 60.838 38.3957C62.658 37.3557 64.028 35.4657 64.888 33.3357C57.278 34.7857 55.548 28.5757 50.278 29.0757C48.668 29.2257 46.008 30.3857 45.238 33.3757C44.618 35.7757 45.058 38.4757 45.838 40.3657C47.608 37.7457 50.718 36.9157 53.588 38.1157Z" fill="#2D2D3C"/>
<path d="M52.5881 14.4757C49.1181 14.4057 45.9981 16.8757 44.5881 20.5557C43.3781 23.7057 43.208 27.0557 43.188 28.2757C46.238 23.2357 52.2781 23.2057 56.5881 26.6257C58.8381 28.4157 61.8281 29.9257 65.0381 29.3957C68.2881 28.8557 70.548 26.6157 72.348 24.6257C66.668 24.4157 63.2481 22.1557 59.9881 18.5457C57.9781 16.3157 55.848 14.5357 52.598 14.4657" fill="#2D2D3C"/>
<path d="M63.158 15.2657C66.688 19.5957 70.488 21.1657 75.058 20.6057C78.288 20.2057 80.928 19.0357 82.758 17.8457C78.688 16.6557 75.048 14.1557 72.478 10.6357L68.128 4.67572C63.548 -1.58428 54.948 -1.35428 49.848 4.14572C47.178 7.02572 45.968 9.87572 45.338 12.9057C50.908 7.94572 58.398 9.44572 63.148 15.2657" fill="#2D2D3C"/>
<path d="M38.3581 50.6357C41.2981 49.0257 42.788 47.1557 43.098 45.1457C43.428 43.0757 42.788 40.8257 41.668 38.8257C38.058 45.6757 32.1281 43.1557 29.228 47.5857C28.3381 48.9457 27.5981 51.7357 29.4481 54.2057C30.9381 56.1857 33.3181 57.5257 35.2881 58.0957C34.3381 55.0757 35.6381 52.1257 38.3581 50.6357Z" fill="#2D2D3C"/>
<path d="M19.258 36.6857C17.038 39.3457 17.028 43.3257 19.028 46.7357C20.738 49.6457 23.248 51.8657 24.188 52.6457C22.148 47.1157 25.888 42.3757 31.248 41.1457C34.048 40.5057 37.098 39.1057 38.678 36.2657C40.288 33.3857 39.938 30.2257 39.508 27.5657C35.798 31.8757 31.898 33.1457 27.048 33.4457C24.048 33.6257 21.328 34.1857 19.248 36.6857" fill="#2D2D3C"/>
<path d="M26.4681 28.9157C32.0581 28.8557 35.6581 26.8657 38.0581 22.9357C39.7581 20.1557 40.4881 17.3657 40.7081 15.1957C37.2381 17.6357 33.0181 18.9157 28.6581 18.7357L21.2881 18.4257C13.5381 18.0957 8.34806 24.9657 9.47806 32.3857C10.0681 36.2757 11.5481 38.9857 13.5181 41.3657C13.1181 33.9157 18.9581 28.9957 26.4681 28.9157Z" fill="#2D2D3C"/>
<path d="M38.6581 70.3558C39.2281 67.0558 38.6981 64.7258 37.3181 63.2158C35.8981 61.6658 33.7481 60.7658 31.4881 60.3958C34.5881 67.4858 28.9281 70.5558 30.5881 75.5858C31.0981 77.1258 32.8181 79.4558 35.8981 79.5458C38.3781 79.6158 40.9081 78.5857 42.5781 77.4057C39.6281 76.2557 38.1281 73.4158 38.6581 70.3558Z" fill="#2D2D3C"/>
<path d="M15.838 76.5857C16.538 79.9857 19.638 82.4757 23.548 83.0357C26.888 83.5157 30.188 82.9357 31.388 82.6857C25.798 80.8357 24.418 74.9557 26.798 69.9957C28.038 67.4057 28.848 64.1557 27.618 61.1457C26.368 58.0957 23.678 56.3957 21.338 55.0757C22.398 60.6657 20.948 64.5057 18.168 68.4757C16.448 70.9357 15.178 73.4057 15.838 76.5957" fill="#2D2D3C"/>
<path d="M14.2581 66.1058C17.6881 61.6958 18.3781 57.6458 16.8081 53.3158C15.6981 50.2558 13.9681 47.9358 12.4081 46.4158C12.1481 50.6558 10.5281 54.7558 7.66806 58.0458L2.82806 63.6158C-2.26194 69.4658 -0.121942 77.8158 6.37806 81.5558C9.77806 83.5158 12.8281 84.0558 15.9181 83.9958C9.83806 79.6658 9.63806 72.0358 14.2581 66.1058Z" fill="#2D2D3C"/>
<path d="M54.2581 82.4157C52.0281 79.9057 49.8781 78.8757 47.8481 79.0157C45.7481 79.1657 43.7081 80.2757 42.0081 81.8157C49.4881 83.8157 48.3581 90.1557 53.3181 91.9957C54.8381 92.5557 57.7281 92.6657 59.7181 90.3157C61.3181 88.4257 62.0981 85.8057 62.2181 83.7557C59.4781 85.3557 56.3281 84.7457 54.2581 82.4257" fill="#2D2D3C"/>
<path d="M44.8981 104.136C47.9881 105.706 51.8681 104.836 54.7481 102.126C57.1981 99.8157 58.8081 96.8657 59.3581 95.7757C54.4281 98.9957 48.9681 96.4057 46.5781 91.4457C45.3281 88.8557 43.2881 86.2057 40.1681 85.2857C37.0081 84.3557 33.9981 85.4057 31.5081 86.4157C36.5281 89.0757 38.6381 92.5957 40.0081 97.2557C40.8581 100.136 41.9981 102.666 44.8981 104.136Z" fill="#2D2D3C"/>
<path d="M35.7181 98.8457C34.4181 93.4157 31.6681 90.3457 27.3081 88.8757C24.2181 87.8357 21.3381 87.7457 19.1681 88.0157C22.3181 90.8557 24.5081 94.6857 25.2981 98.9757L26.6381 106.226C28.0381 113.856 35.8981 117.386 42.8781 114.636C46.5381 113.196 48.8581 111.156 50.7381 108.706C43.5681 110.756 37.4681 106.156 35.7181 98.8557" fill="#2D2D3C"/>
<path d="M73.4081 77.7357C70.0581 77.9157 67.9081 78.9457 66.7481 80.6257C65.5581 82.3557 65.1481 84.6457 65.2981 86.9357C71.5281 82.3357 75.7781 87.1657 80.3081 84.4357C81.6981 83.5957 83.5781 81.3957 82.9881 78.3757C82.5081 75.9457 80.9381 73.7057 79.4181 72.3357C78.9581 75.4757 76.5181 77.5557 73.4181 77.7257" fill="#2D2D3C"/>
<path d="M84.568 98.5957C87.718 97.1557 89.458 93.5757 89.138 89.6357C88.858 86.2757 87.558 83.1857 87.048 82.0757C86.488 87.9357 81.058 90.5857 75.698 89.3757C72.898 88.7357 69.548 88.6757 66.888 90.5457C64.188 92.4357 63.128 95.4457 62.368 98.0157C67.578 95.7457 71.638 96.2957 76.138 98.1257C78.918 99.2557 81.608 99.9457 84.568 98.5957Z" fill="#2D2D3C"/>
<path d="M74.698 102.466C69.638 100.096 65.528 100.326 61.658 102.826C58.918 104.596 57.048 106.796 55.918 108.656C60.108 107.966 64.468 108.636 68.308 110.696L74.808 114.176C81.648 117.836 89.298 113.896 91.508 106.726C92.658 102.966 92.518 99.8757 91.768 96.8757C88.898 103.766 81.508 105.656 74.698 102.476" fill="#2D2D3C"/>
<path d="M81.698 59.8457C79.748 62.5757 79.218 64.8957 79.808 66.8557C80.418 68.8657 81.958 70.6157 83.838 71.9257C84.118 64.1857 90.548 63.8757 91.238 58.6357C91.448 57.0257 90.908 54.1857 88.168 52.7657C85.968 51.6257 83.238 51.4557 81.218 51.7957C83.378 54.1157 83.498 57.3257 81.688 59.8557" fill="#2D2D3C"/>
<path d="M104.958 64.1257C105.798 60.7657 104.088 57.1757 100.808 54.9657C98.008 53.0857 94.778 52.1757 93.588 51.8857C97.828 55.9757 96.508 61.8757 92.218 65.3157C89.978 67.1057 87.838 69.6957 87.638 72.9357C87.438 76.2257 89.128 78.9257 90.668 81.1257C92.138 75.6357 95.108 72.7957 99.338 70.4257C101.958 68.9557 104.168 67.2757 104.958 64.1257Z" fill="#2D2D3C"/>
<path d="M101.838 74.2558C96.8281 76.7358 94.4481 80.0958 93.9881 84.6758C93.6581 87.9158 94.2181 90.7558 94.9581 92.7958C97.0281 89.0858 100.268 86.1058 104.278 84.3758L111.048 81.4558C118.178 78.3858 119.868 69.9458 115.638 63.7458C113.418 60.5058 110.908 58.6958 108.108 57.4058C111.698 63.9458 108.568 70.9058 101.838 74.2458" fill="#2D2D3C"/>
<path d="M72.8781 42.2157C73.7981 45.4357 75.2781 47.3057 77.1781 48.0657C79.1281 48.8457 81.4581 48.7257 83.6581 48.0757C77.7881 43.0357 81.5581 37.8057 77.8781 33.9957C76.7581 32.8257 74.1881 31.4857 71.3781 32.7357C69.1181 33.7457 67.2781 35.7657 66.2881 37.5657C69.4481 37.3157 72.0281 39.2357 72.8781 42.2157Z" fill="#2D2D3C"/>
<path d="M90.7281 26.6957C88.6181 23.9357 84.7481 23.0357 80.9781 24.2357C77.7681 25.2557 75.0381 27.2057 74.0681 27.9557C79.9081 27.1957 83.6981 31.8957 83.7081 37.4057C83.7081 40.2757 84.3981 43.5557 86.8081 45.7357C89.2581 47.9457 92.4181 48.3057 95.0981 48.4757C91.7181 43.9057 91.3581 39.8157 92.1481 35.0257C92.6381 32.0657 92.6981 29.2857 90.7281 26.7057" fill="#2D2D3C"/>
<path d="M96.698 35.4457C95.518 40.9057 96.658 44.8557 99.948 48.0757C102.278 50.3557 104.838 51.6857 106.908 52.3757C105.298 48.4457 104.988 44.0457 106.138 39.8457L108.078 32.7357C110.118 25.2557 104.578 18.6657 97.088 18.1157C93.168 17.8257 90.188 18.6557 87.438 20.0557C94.788 21.3157 98.288 28.1057 96.698 35.4557" fill="#2D2D3C"/>
</svg>
