<svg width="151" height="38" viewBox="0 0 151 38" fill="none" xmlns="http://www.w3.org/2000/svg">
<path d="M30.0584 7.66752C29.9818 6.05882 29.9317 4.45897 29.6901 2.865C29.5781 2.12842 29.4397 0.360619 28.5764 0.0365228C27.0207 -0.546851 21.2931 5.98517 17.8459 10.5608C16.9973 10.5461 16.0928 10.5372 15.1235 10.5372C13.7122 10.5372 12.4335 10.552 11.2726 10.5873C8.7771 6.8396 5.74533 2.9033 4.37234 3.13606C3.129 3.3482 2.38947 9.24381 1.99761 13.13C0.285795 15.0834 0 18.4599 0 24.2672C0 36.6977 1.30228 38 15.0616 38C28.8209 38 30.1379 36.7743 30.1379 24.3055C30.1379 20.5076 30.2263 16.6627 30.1939 12.8295C30.1792 11.1029 30.1409 9.37639 30.0584 7.66163V7.66752ZM20.9513 30.0626C19.9996 30.4073 17.6514 31.082 14.4871 30.6489C14.3368 30.6283 14.1865 30.6047 14.0333 30.5782C11.1253 30.0773 9.6168 28.6425 8.83013 27.8705C8.2556 27.3078 8.47363 27.1221 8.86254 26.7892C9.31333 26.4032 9.42234 26.474 9.87608 26.963C10.5184 27.6584 11.8265 28.9047 14.6226 29.3231C17.4393 29.7503 19.4693 29.2229 20.4917 28.7986C21.3461 28.445 21.352 28.7927 21.5082 29.1433V29.1551C21.6673 29.6118 21.8116 29.7532 20.9572 30.0567L20.9513 30.0626Z" fill="#D2000F"/>
<path d="M95.4285 13.46C93.587 11.7246 91.4068 10.8672 88.6372 10.8672C85.8677 10.8672 83.6874 11.7246 81.8459 13.46C79.863 15.3309 78.8141 17.9207 78.8141 20.9496V29.6766C78.8141 31.8038 79.0233 32.0278 81.239 32.0278C83.4546 32.0278 83.6668 31.8186 83.6668 29.6825V20.9496C83.6668 17.0221 86.0621 15.3839 88.6372 15.3839C91.2123 15.3839 93.6077 17.0221 93.6077 20.9496V29.6766C93.6077 31.8038 93.8139 32.0278 96.0325 32.0278C98.2511 32.0278 98.4603 31.8186 98.4603 29.6825V20.9496C98.4603 17.9178 97.4114 15.328 95.4255 13.46H95.4285Z" fill="#D2000F"/>
<path d="M143.171 20.9996C141.397 20.0598 136.727 18.784 136.727 16.9543C136.727 16.4181 137.092 15.1423 139.193 15.1423C139.685 15.1423 140.266 15.2808 140.678 15.4989C141.032 15.6756 141.515 15.929 141.945 16.2796C142.346 16.6037 142.682 16.9602 143.238 16.9602C143.297 16.9602 143.353 16.9543 143.427 16.9426C144.096 16.8453 144.723 16.1912 145.295 15.711C146.023 15.0893 145.881 14.2909 145.139 13.4305C143.736 11.8042 141.606 10.8672 139.214 10.8672C136.686 10.8672 134.385 11.8778 133.056 13.569C131.936 14.998 131.609 16.8159 132.09 18.5807C132.505 20.1069 133.831 21.8688 138.221 23.5453C139.497 24.0314 140.666 24.3202 141.583 25.2748C141.83 25.5488 141.96 25.9554 141.936 26.3826C141.913 26.8098 141.739 27.1958 141.462 27.4374C140.681 28.115 139.779 28.2977 138.978 28.3242C138.937 28.3242 138.896 28.3242 138.854 28.3242C137.16 28.3242 135.719 27.2724 134.559 26.0055C134.019 25.4162 133.619 25.1186 133.286 25.1186C132.953 25.1186 132.632 25.2453 132.311 25.4899C131.854 25.7963 130.923 26.4621 130.734 27.2282C130.584 27.9353 131.609 29.1787 131.692 29.2759C133.398 31.2293 135.705 32.564 138.766 32.564C140.569 32.564 142.313 32.1161 143.677 31.3C145.198 30.3896 146.311 29.0844 146.633 27.5228C147.219 24.6855 145.802 22.3874 143.168 20.9908L143.171 20.9996Z" fill="#D2000F"/>
<path d="M119.574 10.8672C113.693 10.8672 109.093 15.1129 109.093 21.6567C109.093 28.2005 113.442 32.5787 119.42 32.5787C125.398 32.5787 128.206 28.7102 128.206 28.7102C129.208 27.3696 129.011 27.0338 127.614 25.9907C126.215 24.9448 125.902 24.7975 124.839 26.0762C123.189 28.065 120.03 28.0915 120.03 28.0915C116.775 28.0915 114.468 26.636 113.955 23.7957C113.934 23.6985 114.011 23.6101 114.108 23.6101H127.411C129.24 23.6101 129.744 23.507 129.744 21.7539C129.744 15.2543 125.454 10.8672 119.574 10.8672ZM124.744 19.883H114.096C114.005 19.883 113.934 19.7976 113.952 19.7092C114.518 16.9072 116.61 15.3957 119.518 15.3957C122.426 15.3957 124.556 17.302 124.889 19.718C124.903 19.8064 124.833 19.8859 124.744 19.8859V19.883Z" fill="#D2000F"/>
<path d="M103.949 11.4034C101.731 11.4034 101.521 11.5507 101.521 13.6839V29.6913C101.521 31.8185 101.731 32.0425 103.946 32.0425C106.162 32.0425 106.374 31.8333 106.374 29.6972V13.6898C106.374 11.5625 106.165 11.4034 103.949 11.4034Z" fill="#D2000F"/>
<path d="M103.946 9.64158C106.395 9.64158 106.63 9.40882 106.63 7.05175C106.63 4.69468 106.398 4.44719 103.958 4.44719C101.519 4.44719 101.268 4.69468 101.268 7.04586C101.268 9.39703 101.501 9.64158 103.949 9.64158H103.946Z" fill="#D2000F"/>
<path d="M51.6637 15.3869C53.57 15.3869 53.7704 15.1777 53.7704 13.5336C53.7704 11.5478 53.5818 11.4152 51.6696 11.4152H49.1269V7.78827C49.1269 5.77003 48.1075 4.65632 45.9714 6.28859C43.9974 7.79711 44.2714 7.59381 44.2714 9.7741V11.4152H43.1606C41.2485 11.4152 41.0599 11.5507 41.0599 13.5366C41.0599 15.1806 41.2603 15.3898 43.1665 15.3898H44.2714V21.8482C44.2714 29.5528 44.9166 32.0454 51.6578 32.0454C53.5641 32.0454 53.7645 31.8569 53.7645 29.871C53.7645 27.8852 53.5759 27.5169 51.6637 27.5169C49.1328 27.5169 49.1269 25.9171 49.1269 21.8482V15.3898H51.6637V15.3869Z" fill="#D2000F"/>
<path d="M65.8209 10.8555C59.834 10.8555 54.9607 15.7258 54.9607 21.7157C54.9607 27.7056 59.831 32.5758 65.8209 32.5758C71.8108 32.5758 76.681 27.7056 76.681 21.7157C76.681 15.7258 71.8108 10.8555 65.8209 10.8555ZM65.8209 28.0562C62.2116 28.0562 59.8163 25.1835 59.8163 21.5713C59.8163 17.9591 62.2116 15.384 65.8209 15.384C69.4301 15.384 71.8255 17.962 71.8255 21.5713C71.8255 25.1806 69.4301 28.0562 65.8209 28.0562Z" fill="#D2000F"/>
<path d="M148.404 9.64159C149.12 9.64159 149.733 9.38821 150.239 8.87849C150.746 8.37172 151.002 7.75889 151.002 7.04293C151.002 6.32697 150.749 5.71414 150.239 5.20737C149.733 4.7006 149.12 4.44427 148.404 4.44427C147.688 4.44427 147.075 4.69765 146.565 5.20737C146.056 5.71414 145.799 6.32697 145.799 7.04293C145.799 7.75889 146.053 8.37172 146.559 8.87849C147.066 9.38526 147.682 9.64159 148.401 9.64159H148.404ZM146.822 5.4637C147.258 5.02764 147.785 4.80961 148.404 4.80961C149.022 4.80961 149.544 5.02764 149.977 5.46665C150.413 5.90565 150.631 6.43009 150.631 7.04588C150.631 7.66166 150.413 8.1861 149.977 8.61921C149.541 9.05527 149.017 9.2733 148.404 9.2733C147.791 9.2733 147.264 9.05527 146.825 8.61921C146.386 8.18316 146.168 7.65871 146.168 7.04588C146.168 6.43304 146.386 5.89975 146.822 5.4637Z" fill="#D2000F"/>
<path d="M147.505 8.43059H147.699C147.758 8.43059 147.805 8.40997 147.841 8.37167C147.876 8.33337 147.894 8.28622 147.894 8.23319V7.52312H148.504L148.94 8.25676C148.999 8.37167 149.096 8.43059 149.228 8.43059H149.491C149.544 8.43059 149.579 8.41586 149.6 8.38345C149.62 8.35104 149.614 8.3098 149.585 8.25676L149.084 7.41411C149.243 7.33161 149.37 7.21965 149.461 7.07234C149.553 6.92797 149.6 6.76592 149.6 6.58619C149.6 6.32102 149.505 6.10005 149.314 5.92327C149.122 5.74649 148.884 5.6581 148.598 5.6581H147.502C147.449 5.6581 147.402 5.67872 147.363 5.71703C147.325 5.75533 147.305 5.80247 147.305 5.8555V8.23319C147.305 8.28622 147.325 8.33337 147.363 8.37167C147.402 8.40997 147.449 8.43059 147.502 8.43059H147.505ZM147.894 6.19728H148.598C148.71 6.19728 148.801 6.23558 148.878 6.30924C148.952 6.3829 148.99 6.47718 148.99 6.58914C148.99 6.7011 148.952 6.79243 148.878 6.86904C148.804 6.9427 148.71 6.981 148.598 6.981H147.894V6.19728Z" fill="#D2000F"/>
</svg>
