<svg width="101" height="37" viewBox="0 0 101 37" fill="none" xmlns="http://www.w3.org/2000/svg">
<g clip-path="url(#clip0_381_2339)">
<path d="M69.22 27.1019C70.091 27.1019 70.6136 26.6608 70.6136 25.9307C70.6136 25.2006 70.1258 24.8086 69.22 24.8086H68.3241V27.1019H69.22ZM69.0408 23.319C69.8969 23.319 70.3996 22.927 70.3996 22.2753C70.3996 21.6236 69.9367 21.3051 68.991 21.3051H68.3241V23.319H69.0408ZM66.353 19.791H69.1553C71.2806 19.791 72.3557 20.5701 72.3557 22.045C72.3557 22.9662 71.858 23.5934 70.8724 23.9462C71.9874 24.201 72.6394 25.0193 72.6394 26.112C72.6394 27.8124 71.3602 28.7091 68.8118 28.7091H66.353V19.7861V19.791Z" fill="#6A6A6B"/>
<path d="M78.632 25.8768L77.4524 23.0789L76.2479 25.8768H78.627H78.632ZM77.4822 19.5166H77.6216L82.141 28.7188H79.8763L79.299 27.4203H75.6257L75.0384 28.7188H72.8633L77.4822 19.5166Z" fill="#6A6A6B"/>
<path d="M83.0767 19.502H83.2807L88.925 24.7058V19.7911H90.9209V29.057H90.7318L85.0726 23.8483V28.714H83.0767V19.502Z" fill="#6A6A6B"/>
<path d="M93.0215 19.791H95.1617V23.6718L98.1581 19.791H100.731L97.3119 24.0393L101 28.7139H98.387L95.1617 24.6077V28.7139H93.0215V19.791Z" fill="#6A6A6B"/>
<path d="M48.2703 31.9085C51.7495 31.9085 54.3626 28.988 54.3626 24.5045C54.3626 20.021 51.7544 17.0467 48.2703 17.0467C44.7862 17.0467 42.1283 19.8691 42.1283 24.5045C42.1283 29.1399 44.7364 31.9085 48.2703 31.9085ZM48.2703 12.3623C55.2834 12.3623 60.4498 17.3505 60.4498 24.4555C60.4498 31.5606 55.2784 36.5488 48.2703 36.5488C41.2622 36.5488 36.041 31.5606 36.041 24.4555C36.041 17.3505 41.312 12.3623 48.2703 12.3623Z" fill="#6A6A6B"/>
<path d="M31.397 12.3627L62.0225 0H31.397V12.3627Z" fill="#FF5B00"/>
<path d="M31.3969 12.3623H25.3594V35.5394H31.3969V12.3623Z" fill="#6A6A6B"/>
<path d="M16.1116 12.333L11.3732 23.2943L6.63478 12.333H0L10.9103 36.9997H11.423L22.3731 12.333H16.1116Z" fill="#6A6A6B"/>
</g>
<defs>
<clipPath id="clip0_381_2339">
<rect width="101" height="37" fill="white"/>
</clipPath>
</defs>
</svg>
